<svg width="62" height="52" viewBox="0 0 62 52" fill="none" xmlns="http://www.w3.org/2000/svg">
<circle cx="31.9027" cy="32.7116" r="17.3966" stroke="white" stroke-width="1.95264"/>
<mask id="path-2-inside-1_269_991" fill="white">
<path fill-rule="evenodd" clip-rule="evenodd" d="M38.121 32.5702C38.121 36.0827 35.2736 38.9301 31.7612 38.9301C28.2488 38.9301 25.4014 36.0827 25.4014 32.5702C25.4014 29.0578 28.2488 26.2104 31.7612 26.2104C35.2736 26.2104 38.121 29.0578 38.121 32.5702ZM31.8427 35.4078C33.4424 35.4078 34.7391 34.1111 34.7391 32.5114C34.7391 30.9118 33.4424 29.615 31.8427 29.615C30.2431 29.615 28.9463 30.9118 28.9463 32.5114C28.9463 34.1111 30.2431 35.4078 31.8427 35.4078Z"/>
</mask>
<path fill-rule="evenodd" clip-rule="evenodd" d="M38.121 32.5702C38.121 36.0827 35.2736 38.9301 31.7612 38.9301C28.2488 38.9301 25.4014 36.0827 25.4014 32.5702C25.4014 29.0578 28.2488 26.2104 31.7612 26.2104C35.2736 26.2104 38.121 29.0578 38.121 32.5702ZM31.8427 35.4078C33.4424 35.4078 34.7391 34.1111 34.7391 32.5114C34.7391 30.9118 33.4424 29.615 31.8427 29.615C30.2431 29.615 28.9463 30.9118 28.9463 32.5114C28.9463 34.1111 30.2431 35.4078 31.8427 35.4078Z" fill="white"/>
<path d="M31.7612 39.2127C35.4298 39.2127 38.4037 36.2388 38.4037 32.5702H37.8384C37.8384 35.9265 35.1175 38.6474 31.7612 38.6474V39.2127ZM25.1187 32.5702C25.1187 36.2388 28.0927 39.2127 31.7612 39.2127V38.6474C28.4049 38.6474 25.684 35.9265 25.684 32.5702H25.1187ZM31.7612 25.9277C28.0927 25.9277 25.1187 28.9017 25.1187 32.5702H25.684C25.684 29.2139 28.4049 26.493 31.7612 26.493V25.9277ZM38.4037 32.5702C38.4037 28.9017 35.4298 25.9277 31.7612 25.9277V26.493C35.1175 26.493 37.8384 29.2139 37.8384 32.5702H38.4037ZM34.4565 32.5114C34.4565 33.955 33.2863 35.1252 31.8427 35.1252V35.6905C33.5985 35.6905 35.0218 34.2672 35.0218 32.5114H34.4565ZM31.8427 29.8977C33.2863 29.8977 34.4565 31.0679 34.4565 32.5114H35.0218C35.0218 30.7557 33.5985 29.3324 31.8427 29.3324V29.8977ZM29.229 32.5114C29.229 31.0679 30.3992 29.8977 31.8427 29.8977V29.3324C30.087 29.3324 28.6637 30.7557 28.6637 32.5114H29.229ZM31.8427 35.1252C30.3992 35.1252 29.229 33.955 29.229 32.5114H28.6637C28.6637 34.2672 30.087 35.6905 31.8427 35.6905V35.1252Z" fill="white" mask="url(#path-2-inside-1_269_991)"/>
<mask id="path-4-inside-2_269_991" fill="white">
<path fill-rule="evenodd" clip-rule="evenodd" d="M9.41 30.072C11.5308 19.689 20.719 11.8766 31.7289 11.8766C42.6406 11.8766 51.7605 19.5486 53.9886 29.7927L56.8965 25.7637C53.2338 15.3981 43.3487 7.97137 31.7289 7.97137C20.0173 7.97137 10.07 15.5146 6.47681 26.008L9.41 30.072Z"/>
</mask>
<path fill-rule="evenodd" clip-rule="evenodd" d="M9.41 30.072C11.5308 19.689 20.719 11.8766 31.7289 11.8766C42.6406 11.8766 51.7605 19.5486 53.9886 29.7927L56.8965 25.7637C53.2338 15.3981 43.3487 7.97137 31.7289 7.97137C20.0173 7.97137 10.07 15.5146 6.47681 26.008L9.41 30.072Z" fill="white"/>
<path d="M9.41 30.072L9.25167 30.1863L9.51222 30.5472L9.60132 30.1111L9.41 30.072ZM53.9886 29.7927L53.7977 29.8342L53.8908 30.2619L54.1469 29.907L53.9886 29.7927ZM56.8965 25.7637L57.0549 25.878L57.1147 25.795L57.0807 25.6986L56.8965 25.7637ZM6.47681 26.008L6.29207 25.9448L6.25934 26.0404L6.31848 26.1223L6.47681 26.008ZM9.60132 30.1111C11.7039 19.8172 20.8136 12.0719 31.7289 12.0719V11.6814C20.6244 11.6814 11.3577 19.5608 9.21869 30.0329L9.60132 30.1111ZM31.7289 12.0719C42.5469 12.0719 51.5888 19.678 53.7977 29.8342L54.1794 29.7512C51.9322 19.4193 42.7344 11.6814 31.7289 11.6814V12.0719ZM54.1469 29.907L57.0549 25.878L56.7382 25.6494L53.8302 29.6784L54.1469 29.907ZM57.0807 25.6986C53.3912 15.2574 43.434 7.77611 31.7289 7.77611V8.16664C43.2633 8.16664 53.0764 15.5387 56.7124 25.8287L57.0807 25.6986ZM31.7289 7.77611C19.9313 7.77611 9.91149 15.3748 6.29207 25.9448L6.66154 26.0713C10.2285 15.6543 20.1033 8.16664 31.7289 8.16664V7.77611ZM6.31848 26.1223L9.25167 30.1863L9.56833 29.9577L6.63514 25.8937L6.31848 26.1223Z" fill="white" mask="url(#path-4-inside-2_269_991)"/>
<mask id="path-6-inside-3_269_991" fill="white">
<path fill-rule="evenodd" clip-rule="evenodd" d="M29.4805 0.696411C25.3753 0.944757 21.3835 1.93248 17.716 3.54451L20.7025 6.53102C23.4684 5.47822 26.4279 4.81534 29.4805 4.60892V0.696411ZM1.17226 20.0705C3.89613 13.3553 9.13738 7.9503 15.6029 4.56109L18.5085 7.46672C11.5157 10.7819 6.05493 16.679 3.96581 23.941L1.17226 20.0705ZM44.5631 7.32633C51.5914 10.5113 57.0702 16.2206 59.2321 23.3763L62.0098 19.5277C59.2339 12.9229 53.9603 7.68131 47.4786 4.41079L44.5631 7.32633ZM42.3382 6.4216L45.3386 3.42117C41.804 1.93018 37.9743 1.00139 34.0366 0.722948V4.63718C36.9246 4.86253 39.7187 5.47374 42.3382 6.4216ZM0.407493 31.074L0.407471 31.074L0.407493 31.074H4.31272L4.31274 31.074L4.31272 31.074H0.407493Z"/>
</mask>
<path fill-rule="evenodd" clip-rule="evenodd" d="M29.4805 0.696411C25.3753 0.944757 21.3835 1.93248 17.716 3.54451L20.7025 6.53102C23.4684 5.47822 26.4279 4.81534 29.4805 4.60892V0.696411ZM1.17226 20.0705C3.89613 13.3553 9.13738 7.9503 15.6029 4.56109L18.5085 7.46672C11.5157 10.7819 6.05493 16.679 3.96581 23.941L1.17226 20.0705ZM44.5631 7.32633C51.5914 10.5113 57.0702 16.2206 59.2321 23.3763L62.0098 19.5277C59.2339 12.9229 53.9603 7.68131 47.4786 4.41079L44.5631 7.32633ZM42.3382 6.4216L45.3386 3.42117C41.804 1.93018 37.9743 1.00139 34.0366 0.722948V4.63718C36.9246 4.86253 39.7187 5.47374 42.3382 6.4216ZM0.407493 31.074L0.407471 31.074L0.407493 31.074H4.31272L4.31274 31.074L4.31272 31.074H0.407493Z" fill="white"/>
<path d="M17.716 3.54451L17.6232 3.33354L17.3147 3.46915L17.553 3.70746L17.716 3.54451ZM29.4805 0.696411H29.7109V0.451603L29.4665 0.466386L29.4805 0.696411ZM20.7025 6.53102L20.5395 6.69397L20.645 6.79946L20.7845 6.74639L20.7025 6.53102ZM29.4805 4.60892L29.496 4.83884L29.7109 4.82431V4.60892H29.4805ZM15.6029 4.56109L15.7659 4.39814L15.646 4.2783L15.4959 4.35699L15.6029 4.56109ZM1.17226 20.0705L0.958715 19.9839L0.910801 20.102L0.985403 20.2054L1.17226 20.0705ZM18.5085 7.46672L18.6073 7.67495L18.9026 7.53492L18.6715 7.30377L18.5085 7.46672ZM3.96581 23.941L3.77895 24.0759L4.05627 24.4601L4.18727 24.0047L3.96581 23.941ZM59.2321 23.3763L59.0115 23.4429L59.1462 23.889L59.4189 23.5112L59.2321 23.3763ZM44.5631 7.32633L44.4001 7.16338L44.1647 7.39881L44.468 7.53623L44.5631 7.32633ZM62.0098 19.5277L62.1967 19.6626L62.2724 19.5577L62.2223 19.4384L62.0098 19.5277ZM47.4786 4.41079L47.5824 4.20505L47.4336 4.12994L47.3157 4.24784L47.4786 4.41079ZM42.3382 6.4216L42.2598 6.6383L42.3975 6.68815L42.5011 6.58455L42.3382 6.4216ZM45.3386 3.42117L45.5016 3.58412L45.7437 3.34195L45.4282 3.20884L45.3386 3.42117ZM34.0366 0.722948L34.0529 0.493076L33.8062 0.475632V0.722948H34.0366ZM34.0366 4.63718H33.8062V4.85034L34.0187 4.86692L34.0366 4.63718ZM0.407471 31.074L0.240896 30.9148L0.0816992 31.0813L0.248182 31.2405L0.407471 31.074ZM0.407493 31.074V30.8435H0.308987L0.240918 30.9147L0.407493 31.074ZM0.407493 31.074L0.248203 31.2406L0.315025 31.3045H0.407493V31.074ZM4.31272 31.074V31.3045H4.40519L4.47201 31.2406L4.31272 31.074ZM4.31274 31.074L4.47203 31.2405L4.63872 31.0811L4.47912 30.9146L4.31274 31.074ZM4.31272 31.074L4.4791 30.9145L4.41106 30.8435H4.31272V31.074ZM17.8087 3.75547C21.4518 2.15422 25.4169 1.17311 29.4944 0.926436L29.4665 0.466386C25.3338 0.716405 21.3153 1.71075 17.6232 3.33354L17.8087 3.75547ZM20.8654 6.36807L17.8789 3.38156L17.553 3.70746L20.5395 6.69397L20.8654 6.36807ZM29.4649 4.379C26.3893 4.58698 23.4074 5.25487 20.6205 6.31565L20.7845 6.74639C23.5294 5.70157 26.4666 5.0437 29.496 4.83884L29.4649 4.379ZM29.25 0.696411V4.60892H29.7109V0.696411H29.25ZM15.4959 4.35699C8.98748 7.76869 3.70526 13.2128 0.958715 19.9839L1.38581 20.1571C4.087 13.4978 9.28729 8.1319 15.7099 4.76519L15.4959 4.35699ZM18.6715 7.30377L15.7659 4.39814L15.44 4.72404L18.3456 7.62967L18.6715 7.30377ZM4.18727 24.0047C6.2558 16.8143 11.6662 10.9656 18.6073 7.67495L18.4098 7.25849C11.3652 10.5982 5.85405 16.5437 3.74434 23.8773L4.18727 24.0047ZM0.985403 20.2054L3.77895 24.0759L4.15266 23.8061L1.35912 19.9357L0.985403 20.2054ZM59.4527 23.3096C57.269 16.0817 51.7383 10.3249 44.6582 7.11643L44.468 7.53623C51.4445 10.6978 56.8714 16.3595 59.0115 23.4429L59.4527 23.3096ZM61.823 19.3928L59.0452 23.2414L59.4189 23.5112L62.1967 19.6626L61.823 19.3928ZM47.3748 4.61653C53.8139 7.86555 59.0452 13.0688 61.7974 19.617L62.2223 19.4384C59.4225 12.7769 54.1067 7.49707 47.5824 4.20505L47.3748 4.61653ZM47.3157 4.24784L44.4001 7.16338L44.726 7.48928L47.6416 4.57374L47.3157 4.24784ZM42.5011 6.58455L45.5016 3.58412L45.1757 3.25822L42.1752 6.25865L42.5011 6.58455ZM34.0203 0.952819C37.9327 1.22947 41.7376 2.15229 45.249 3.6335L45.4282 3.20884C41.8703 1.70806 38.0159 0.77331 34.0529 0.493076L34.0203 0.952819ZM34.267 4.63718V0.722948H33.8062V4.63718H34.267ZM42.4166 6.20491C39.7776 5.25001 36.9632 4.6344 34.0545 4.40743L34.0187 4.86692C36.886 5.09066 39.6597 5.69747 42.2598 6.6383L42.4166 6.20491ZM0.574046 31.2332L0.574067 31.2332L0.240918 30.9147L0.240896 30.9148L0.574046 31.2332ZM0.566782 30.9075L0.56676 30.9075L0.248182 31.2405L0.248203 31.2406L0.566782 30.9075ZM4.31272 30.8436H0.407493V31.3045H4.31272V30.8436ZM4.15345 30.9075L4.15343 30.9075L4.47201 31.2406L4.47203 31.2405L4.15345 30.9075ZM4.14634 31.2334L4.14636 31.2335L4.47912 30.9146L4.4791 30.9145L4.14634 31.2334ZM0.407493 31.3044H4.31272V30.8435H0.407493V31.3044Z" fill="white" mask="url(#path-6-inside-3_269_991)"/>
</svg>
